<?xml version="1.0" encoding="UTF-8"?>
<!DOCTYPE svg PUBLIC "-//W3C//DTD SVG 1.1//EN" "http://www.w3.org/Graphics/SVG/1.1/DTD/svg11.dtd">
<!-- Creator: CorelDRAW -->
<svg xmlns="http://www.w3.org/2000/svg" xml:space="preserve" width="210mm" height="297mm" version="1.1" style="shape-rendering:geometricPrecision; text-rendering:geometricPrecision; image-rendering:optimizeQuality; fill-rule:evenodd; clip-rule:evenodd"
viewBox="0 0 21000 29700"
 xmlns:xlink="http://www.w3.org/1999/xlink"
 xmlns:xodm="http://www.corel.com/coreldraw/odm/2003">
 <defs>
  <style type="text/css">
   <![CDATA[
    .str2 {stroke:#373435;stroke-width:20;stroke-miterlimit:22.9256}
    .str0 {stroke:#373435;stroke-width:7.62;stroke-linecap:round;stroke-linejoin:round;stroke-miterlimit:22.9256}
    .str1 {stroke:#373435;stroke-width:8.48;stroke-linecap:round;stroke-linejoin:round;stroke-miterlimit:22.9256}
    .fil0 {fill:none}
    .fil3 {fill:#8C8C8C}
    .fil2 {fill:#BFFF7F}
    .fil1 {fill:white}
   ]]>
  </style>
 </defs>
 <g id="Capa_x0020_1">
  <metadata id="CorelCorpID_0Corel-Layer"/>
  <line class="fil0 str0" x1="-7.11" y1="0.55" x2="-7.11" y2= "0.55" />
  <line class="fil0 str1" x1="21706.88" y1="31646.29" x2="21706.88" y2= "31646.29" />
  <polygon class="fil1 str2" points="16070.41,15025.48 16138.32,15704.58 16070.41,15025.48 "/>
  <polyline class="fil0 str2" points="16070.41,15025.48 16138.32,15704.58 16070.41,15025.48 16070.41,15025.48 "/>
  <polygon class="fil1 str2" points="15518.65,9677.63 15662.96,11078.26 15569.58,10237.88 17564.42,10034.15 15569.58,10237.88 "/>
  <polyline class="fil0 str2" points="15518.65,9677.63 15662.96,11078.26 15569.58,10237.88 17564.42,10034.15 15569.58,10237.88 15518.65,9677.63 "/>
  <polygon class="fil1 str2" points="15340.39,16349.72 15340.39,16069.59 12819.25,16332.74 12123.18,9635.18 15340.39,9295.64 15340.39,9015.51 14966.89,9057.95 12055.28,9355.06 12004.34,9363.55 11961.9,9389.01 11927.95,9414.48 11893.99,9448.43 11868.52,9482.39 11851.55,9524.83 11843.06,9575.76 11843.06,9618.21 12191.09,13013.67 12547.62,16400.65 12556.11,16451.58 12573.08,16494.02 12598.55,16527.98 12632.5,16561.93 12674.95,16587.4 12717.39,16604.38 12759.83,16621.35 12810.77,16612.86 "/>
  <polygon class="fil1 str2" points="18846.21,15797.95 18846.21,15747.02 18498.17,12360.04 18498.17,12360.04 18498.17,12360.04 18141.65,8964.58 18133.16,8922.14 18116.18,8879.69 18090.71,8837.25 18056.76,8803.29 18014.32,8777.83 17971.87,8760.85 17929.43,8752.36 17878.5,8752.36 15340.39,9015.51 15340.39,9295.64 17870.01,9032.49 18566.08,15738.53 18566.08,15738.53 15340.39,16069.59 15340.39,16349.72 15722.38,16315.76 18633.99,16010.17 18676.43,16001.68 18718.88,15984.7 18761.32,15959.24 18795.27,15925.28 18820.74,15882.84 18837.72,15840.4 "/>
  <polyline class="fil0 str2" points="18498.17,12360.04 18498.17,12360.04 18141.65,8964.58 18133.16,8922.14 18116.18,8879.69 18090.71,8837.25 18056.76,8803.29 18014.32,8777.83 17971.87,8760.85 17929.43,8752.36 17878.5,8752.36 14966.89,9057.95 12055.28,9355.06 12004.34,9363.55 11961.9,9389.01 11927.95,9414.48 11893.99,9448.43 11868.52,9482.39 11851.55,9524.83 11843.06,9575.76 11843.06,9618.21 12191.09,13013.67 12547.62,16400.65 12556.11,16451.58 12573.08,16494.02 12598.55,16527.98 12632.5,16561.93 12674.95,16587.4 12717.39,16604.38 12759.83,16621.35 12810.77,16612.86 15722.38,16315.76 18633.99,16010.17 18676.43,16001.68 18718.88,15984.7 18761.32,15959.24 18795.27,15925.28 18820.74,15882.84 18837.72,15840.4 18846.21,15797.95 18846.21,15747.02 18498.17,12360.04 "/>
  <polyline class="fil0 str2" points="18566.08,15738.53 12819.25,16332.74 12123.18,9635.18 17870.01,9032.49 18566.08,15738.53 "/>
  <polygon class="fil1 str2" points="14652.81,8353.4 14652.81,8073.27 11987.37,8353.4 11987.37,8353.4 11579.91,4363.72 13056.94,323.12 14652.81,357.08 14652.81,76.95 13031.47,42.99 12955.07,51.48 12887.16,85.44 12836.23,136.37 12802.28,195.79 11291.3,4329.77 11291.3,4329.77 11715.73,8421.31 11724.22,8472.24 11741.19,8514.68 11766.66,8557.12 11800.62,8582.59 11843.06,8616.54 11885.5,8633.52 11936.43,8642.01 11978.88,8642.01 "/>
  <polygon class="fil1 str2" points="18014.32,7818.61 18014.32,7767.68 17632.33,4075.11 17250.34,357.08 17224.87,272.19 17173.94,204.28 17097.54,161.84 17012.65,136.37 15043.28,93.93 15043.28,93.93 15043.28,93.93 14652.81,76.95 14652.81,357.08 16970.21,416.5 17734.19,7759.19 14652.81,8073.27 14652.81,8353.4 14890.49,8336.42 17802.1,8030.83 17853.03,8022.34 17895.48,8005.36 17929.43,7979.89 17963.38,7945.94 17988.85,7903.5 18005.83,7861.05 "/>
  <polyline class="fil0 str2" points="15043.28,93.93 15043.28,93.93 13031.47,42.99 12955.07,51.48 12887.16,85.44 12836.23,136.37 12802.28,195.79 11291.3,4329.77 11715.73,8421.31 11724.22,8472.24 11741.19,8514.68 11766.66,8557.12 11800.62,8582.59 11843.06,8616.54 11885.5,8633.52 11936.43,8642.01 11978.88,8642.01 14890.49,8336.42 17802.1,8030.83 17853.03,8022.34 17895.48,8005.36 17929.43,7979.89 17963.38,7945.94 17988.85,7903.5 18005.83,7861.05 18014.32,7818.61 18014.32,7767.68 17632.33,4075.11 17250.34,357.08 17224.87,272.19 17173.94,204.28 17097.54,161.84 17012.65,136.37 15043.28,93.93 "/>
  <polyline class="fil0 str2" points="11987.37,8353.4 11579.91,4363.72 13056.94,323.12 16970.21,416.5 17734.19,7759.19 11987.37,8353.4 "/>
  <polygon class="fil1 str2" points="15043.28,5136.19 17089.05,4923.98 15043.28,5136.19 15238.52,7054.63 "/>
  <polyline class="fil0 str2" points="15043.28,5136.19 17089.05,4923.98 15043.28,5136.19 15238.52,7054.63 15043.28,5136.19 "/>
  <polygon class="fil1 str2" points="15221.55,4151.51 15000.84,1978.41 14831.07,365.56 "/>
  <polyline class="fil0 str2" points="15221.55,4151.51 15000.84,1978.41 14831.07,365.56 15221.55,4151.51 "/>
  <polygon class="fil1 str2" points="14084.07,5238.06 14567.92,5187.12 11690.26,5484.23 "/>
  <polyline class="fil0 str2" points="14084.07,5238.06 14567.92,5187.12 11690.26,5484.23 14084.07,5238.06 "/>
  <polygon class="fil1 str2" points="16240.19,25203.39 16240.19,24914.78 15645.98,24906.29 15645.98,24906.29 13727.54,25110.02 12955.07,17606.04 16240.19,17258 16240.19,16977.88 15790.29,17028.81 12878.68,17334.4 12836.23,17342.89 12793.79,17359.87 12751.35,17385.33 12717.39,17419.29 12691.92,17461.73 12674.95,17504.17 12666.46,17555.11 12666.46,17597.55 13065.43,21391.98 13455.9,25177.93 13464.39,25220.37 13481.37,25271.3 13506.84,25305.26 13540.79,25339.21 13583.23,25364.68 13625.68,25381.65 13668.12,25390.14 13719.05,25390.14 15654.47,25194.9 15654.47,25194.9 "/>
  <polygon class="fil1 str2" points="19805.42,25059.08 19805.42,25008.15 19389.48,20993.01 18973.54,16943.92 18965.05,16901.48 18939.58,16859.04 18914.11,16816.59 18880.16,16782.64 18846.21,16757.17 18803.76,16740.19 18752.83,16731.71 18710.39,16731.71 16240.19,16977.88 16240.19,17258 18693.41,17011.83 19525.3,24991.17 19525.3,24991.17 16240.19,24914.78 16240.19,25203.39 19559.25,25271.3 19610.18,25271.3 19661.12,25254.32 19703.56,25228.86 19746,25194.9 19771.47,25152.46 19796.94,25110.02 "/>
  <polyline class="fil0 str2" points="15654.47,25194.9 19559.25,25271.3 19610.18,25271.3 19661.12,25254.32 19703.56,25228.86 19746,25194.9 19771.47,25152.46 19796.94,25110.02 19805.42,25059.08 19805.42,25008.15 19389.48,20993.01 18973.54,16943.92 18965.05,16901.48 18939.58,16859.04 18914.11,16816.59 18880.16,16782.64 18846.21,16757.17 18803.76,16740.19 18752.83,16731.71 18710.39,16731.71 15790.29,17028.81 12878.68,17334.4 12836.23,17342.89 12793.79,17359.87 12751.35,17385.33 12717.39,17419.29 12691.92,17461.73 12674.95,17504.17 12666.46,17555.11 12666.46,17597.55 13065.43,21391.98 13455.9,25177.93 13464.39,25220.37 13481.37,25271.3 13506.84,25305.26 13540.79,25339.21 13583.23,25364.68 13625.68,25381.65 13668.12,25390.14 13719.05,25390.14 15654.47,25194.9 "/>
  <polyline class="fil0 str2" points="19525.3,24991.17 15645.98,24906.29 15645.98,24906.29 13727.54,25110.02 12955.07,17606.04 18693.41,17011.83 19525.3,24991.17 "/>
  <polygon class="fil1 str2" points="16596.71,20135.66 15645.98,20237.52 16121.34,20186.59 18608.52,19923.44 16596.71,20135.66 "/>
  <polyline class="fil0 str2" points="16596.71,20135.66 15645.98,20237.52 16121.34,20186.59 18608.52,19923.44 16596.71,20135.66 16596.71,20135.66 "/>
  <polygon class="fil1 str2" points="16223.21,21137.32 16316.58,22096.54 "/>
  <polyline class="fil0 str2" points="16223.21,21137.32 16316.58,22096.54 16223.21,21137.32 "/>
  <polygon class="fil1 str2" points="15000.84,1978.41 14831.07,365.56 16970.21,416.5 17114.52,1757.7 "/>
  <polyline class="fil0 str2" points="15000.84,1978.41 14831.07,365.56 16970.21,416.5 17114.52,1757.7 15000.84,1978.41 "/>
  <polygon class="fil1 str2" points="11987.37,8353.4 11893.99,7402.67 14287.79,7148.01 14381.17,8107.22 "/>
  <polyline class="fil0 str2" points="11987.37,8353.4 11893.99,7402.67 14287.79,7148.01 14381.17,8107.22 11987.37,8353.4 "/>
  <polygon class="fil1 str2" points="17632.33,6799.97 15238.52,7054.63 15340.39,8005.36 17734.19,7759.19 "/>
  <polyline class="fil0 str2" points="17632.33,6799.97 15238.52,7054.63 15340.39,8005.36 17734.19,7759.19 17632.33,6799.97 "/>
  <polygon class="fil1 str2" points="11596.89,4525.01 11579.91,4363.72 13056.94,323.12 14831.07,365.56 15221.55,4151.51 "/>
  <polyline class="fil0 str2" points="11596.89,4525.01 11579.91,4363.72 13056.94,323.12 14831.07,365.56 15221.55,4151.51 11596.89,4525.01 "/>
  <polygon class="fil1 str2" points="18235.02,21901.3 19194.24,21799.44 19525.3,24991.17 18557.59,24974.2 "/>
  <polyline class="fil0 str2" points="18235.02,21901.3 19194.24,21799.44 19525.3,24991.17 18557.59,24974.2 18235.02,21901.3 "/>
  <polygon class="fil1 str2" points="13727.54,25110.02 13447.42,22393.64 14406.63,22300.27 14686.76,25008.15 "/>
  <polyline class="fil0 str2" points="13727.54,25110.02 13447.42,22393.64 14406.63,22300.27 14686.76,25008.15 13727.54,25110.02 "/>
  <polygon class="fil1 str2" points="17564.42,10034.15 17963.38,9991.71 17870.01,9032.49 15476.21,9287.15 15518.65,9677.63 15569.58,10237.88 "/>
  <polyline class="fil0 str2" points="17564.42,10034.15 17963.38,9991.71 17870.01,9032.49 15476.21,9287.15 15518.65,9677.63 15569.58,10237.88 17564.42,10034.15 "/>
  <polygon class="fil1 str2" points="12225.05,10585.91 14618.85,10339.74 14567.92,9881.36 14516.99,9380.52 12123.18,9635.18 "/>
  <polyline class="fil0 str2" points="12225.05,10585.91 14618.85,10339.74 14567.92,9881.36 14516.99,9380.52 12123.18,9635.18 12225.05,10585.91 "/>
  <polygon class="fil1 str2" points="14084.07,5238.06 15043.28,5136.19 15238.52,7054.63 15340.39,8005.36 14381.17,8107.22 "/>
  <polyline class="fil0 str2" points="14084.07,5238.06 15043.28,5136.19 15238.52,7054.63 15340.39,8005.36 14381.17,8107.22 14084.07,5238.06 "/>
  <polygon class="fil1 str2" points="14185.93,6188.79 14084.07,5238.06 11690.26,5484.23 11792.13,6443.45 "/>
  <polyline class="fil0 str2" points="14185.93,6188.79 14084.07,5238.06 11690.26,5484.23 11792.13,6443.45 14185.93,6188.79 "/>
  <polygon class="fil1 str2" points="14185.93,6188.79 11792.13,6443.45 11893.99,7402.67 14287.79,7148.01 14381.17,8107.22 "/>
  <polyline class="fil0 str2" points="14185.93,6188.79 11792.13,6443.45 11893.99,7402.67 14287.79,7148.01 14381.17,8107.22 14185.93,6188.79 "/>
  <polygon class="fil1 str2" points="17538.95,5840.75 17437.09,4890.02 17089.05,4923.98 15043.28,5136.19 15145.15,6095.41 "/>
  <polyline class="fil0 str2" points="17538.95,5840.75 17437.09,4890.02 17089.05,4923.98 15043.28,5136.19 15145.15,6095.41 17538.95,5840.75 "/>
  <polygon class="fil1 str2" points="15145.15,6095.41 17538.95,5840.75 17632.33,6799.97 15238.52,7054.63 "/>
  <polyline class="fil0 str2" points="15145.15,6095.41 17538.95,5840.75 17632.33,6799.97 15238.52,7054.63 15145.15,6095.41 "/>
  <polygon class="fil1 str2" points="14466.06,4227.91 14567.92,5187.12 17437.09,4890.02 17335.22,3930.8 14466.06,4227.91 "/>
  <polyline class="fil0 str2" points="14466.06,4227.91 14567.92,5187.12 17437.09,4890.02 17335.22,3930.8 14466.06,4227.91 14466.06,4227.91 "/>
  <polygon class="fil1 str2" points="15111.19,3064.96 17224.87,2844.25 17335.22,3930.8 15221.55,4151.51 "/>
  <polyline class="fil0 str2" points="15111.19,3064.96 17224.87,2844.25 17335.22,3930.8 15221.55,4151.51 15111.19,3064.96 "/>
  <polygon class="fil1 str2" points="15000.84,1978.41 17114.52,1757.7 17224.87,2844.25 15111.19,3064.96 "/>
  <polyline class="fil0 str2" points="15000.84,1978.41 17114.52,1757.7 17224.87,2844.25 15111.19,3064.96 15000.84,1978.41 "/>
  <polygon class="fil1 str2" points="11596.89,4525.01 14466.06,4227.91 14567.92,5187.12 11690.26,5484.23 "/>
  <polyline class="fil0 str2" points="11596.89,4525.01 14466.06,4227.91 14567.92,5187.12 11690.26,5484.23 11596.89,4525.01 "/>
  <polygon class="fil1 str2" points="12225.05,10585.91 14618.85,10339.74 14712.23,11298.96 12318.42,11545.13 "/>
  <polyline class="fil0 str2" points="12225.05,10585.91 14618.85,10339.74 14712.23,11298.96 12318.42,11545.13 12225.05,10585.91 "/>
  <polygon class="fil1 str2" points="12318.42,11545.13 14712.23,11298.96 14814.09,12258.18 12420.29,12504.35 "/>
  <polyline class="fil0 str2" points="12318.42,11545.13 14712.23,11298.96 14814.09,12258.18 12420.29,12504.35 12318.42,11545.13 "/>
  <polygon class="fil1 str2" points="14516.99,9380.52 14814.09,12258.18 15179.1,12215.74 15289.46,12207.25 15773.31,12156.32 15671.45,11197.1 15662.96,11078.26 15476.21,9287.15 "/>
  <polyline class="fil0 str2" points="14516.99,9380.52 14814.09,12258.18 15179.1,12215.74 15289.46,12207.25 15773.31,12156.32 15671.45,11197.1 15662.96,11078.26 15476.21,9287.15 14516.99,9380.52 "/>
  <polygon class="fil1 str2" points="18065.25,10950.93 15671.45,11197.1 15773.31,12156.32 18167.11,11910.15 18065.25,10950.93 "/>
  <polyline class="fil0 str2" points="18065.25,10950.93 15671.45,11197.1 15773.31,12156.32 18167.11,11910.15 18065.25,10950.93 18065.25,10950.93 "/>
  <polygon class="fil1 str2" points="15569.58,10237.88 17963.38,9991.71 18065.25,10950.93 15671.45,11197.1 "/>
  <polyline class="fil0 str2" points="15569.58,10237.88 17963.38,9991.71 18065.25,10950.93 15671.45,11197.1 15569.58,10237.88 "/>
  <polygon class="fil1 str2" points="12522.15,13463.57 14915.95,13217.4 15391.32,13166.47 15289.46,12207.25 12420.29,12504.35 12522.15,13463.57 "/>
  <polyline class="fil0 str2" points="12522.15,13463.57 14915.95,13217.4 15391.32,13166.47 15289.46,12207.25 12420.29,12504.35 12522.15,13463.57 12522.15,13463.57 "/>
  <polygon class="fil1 str2" points="15875.17,13115.54 18268.98,12869.36 18167.11,11910.15 15289.46,12207.25 15391.32,13166.47 15875.17,13115.54 "/>
  <polyline class="fil0 str2" points="15875.17,13115.54 18268.98,12869.36 18167.11,11910.15 15289.46,12207.25 15391.32,13166.47 15875.17,13115.54 15875.17,13115.54 "/>
  <polygon class="fil1 str2" points="12624.02,14422.79 15009.33,14168.13 14975.38,13811.61 14915.95,13217.4 12522.15,13463.57 "/>
  <polyline class="fil0 str2" points="12624.02,14422.79 15009.33,14168.13 14975.38,13811.61 14915.95,13217.4 12522.15,13463.57 12624.02,14422.79 "/>
  <polygon class="fil1 str2" points="15111.19,15127.35 15094.22,14966.06 15009.33,14168.13 12624.02,14422.79 12717.39,15373.52 14915.95,15152.81 "/>
  <polyline class="fil0 str2" points="15111.19,15127.35 15094.22,14966.06 15009.33,14168.13 12624.02,14422.79 12717.39,15373.52 14915.95,15152.81 15111.19,15127.35 "/>
  <polygon class="fil1 str2" points="12717.39,15373.52 15111.19,15127.35 15213.06,16086.57 12819.25,16332.74 "/>
  <polyline class="fil0 str2" points="12717.39,15373.52 15111.19,15127.35 15213.06,16086.57 12819.25,16332.74 12717.39,15373.52 "/>
  <polygon class="fil1 str2" points="16172.28,15984.7 16138.32,15704.58 16070.41,15025.48 15968.55,14074.75 15875.17,13115.54 14915.95,13217.4 15213.06,16086.57 16172.28,15984.7 "/>
  <polyline class="fil0 str2" points="16172.28,15984.7 16138.32,15704.58 16070.41,15025.48 15968.55,14074.75 15875.17,13115.54 14915.95,13217.4 15213.06,16086.57 16172.28,15984.7 16172.28,15984.7 "/>
  <polygon class="fil1 str2" points="15875.17,13115.54 15968.55,14074.75 18362.35,13820.09 18268.98,12869.36 "/>
  <polyline class="fil0 str2" points="15875.17,13115.54 15968.55,14074.75 18362.35,13820.09 18268.98,12869.36 15875.17,13115.54 "/>
  <polygon class="fil1 str2" points="16070.41,15025.48 18464.22,14779.31 18362.35,13820.09 15968.55,14074.75 "/>
  <polyline class="fil0 str2" points="16070.41,15025.48 18464.22,14779.31 18362.35,13820.09 15968.55,14074.75 16070.41,15025.48 "/>
  <polygon class="fil1 str2" points="16070.41,15025.48 18464.22,14779.31 18566.08,15738.53 16172.28,15984.7 "/>
  <polyline class="fil0 str2" points="16070.41,15025.48 18464.22,14779.31 18566.08,15738.53 16172.28,15984.7 16070.41,15025.48 "/>
  <polygon class="fil1 str2" points="13048.45,18565.26 13175.78,18556.77 15442.25,18319.09 15348.88,17359.87 12955.07,17606.04 "/>
  <polyline class="fil0 str2" points="13048.45,18565.26 13175.78,18556.77 15442.25,18319.09 15348.88,17359.87 12955.07,17606.04 13048.45,18565.26 "/>
  <polygon class="fil1 str2" points="16596.71,20135.66 16503.33,19176.44 16469.38,18896.31 16299.61,17266.49 15348.88,17359.87 15442.25,18319.09 15645.98,20237.52 16596.71,20135.66 "/>
  <polyline class="fil0 str2" points="16596.71,20135.66 16503.33,19176.44 16469.38,18896.31 16299.61,17266.49 15348.88,17359.87 15442.25,18319.09 15645.98,20237.52 16596.71,20135.66 16596.71,20135.66 "/>
  <polygon class="fil1 str2" points="13150.31,19524.48 15544.12,19278.3 15645.98,20237.52 13252.18,20483.69 "/>
  <polyline class="fil0 str2" points="13150.31,19524.48 15544.12,19278.3 15645.98,20237.52 13252.18,20483.69 13150.31,19524.48 "/>
  <polygon class="fil1 str2" points="13048.45,18565.26 15442.25,18319.09 15544.12,19278.3 13150.31,19524.48 "/>
  <polyline class="fil0 str2" points="13048.45,18565.26 15442.25,18319.09 15544.12,19278.3 13150.31,19524.48 13048.45,18565.26 "/>
  <polygon class="fil1 str2" points="16299.61,17266.49 18693.41,17011.83 18795.27,17971.05 16401.47,18217.22 "/>
  <polyline class="fil0 str2" points="16299.61,17266.49 18693.41,17011.83 18795.27,17971.05 16401.47,18217.22 16299.61,17266.49 "/>
  <polygon class="fil1 str2" points="16503.33,19176.44 18897.14,18930.27 18795.27,17971.05 16401.47,18217.22 "/>
  <polyline class="fil0 str2" points="16503.33,19176.44 18897.14,18930.27 18795.27,17971.05 16401.47,18217.22 16503.33,19176.44 "/>
  <polygon class="fil1 str2" points="16596.71,20135.66 18608.52,19923.44 18990.51,19889.49 18897.14,18930.27 16503.33,19176.44 "/>
  <polyline class="fil0 str2" points="16596.71,20135.66 18608.52,19923.44 18990.51,19889.49 18897.14,18930.27 16503.33,19176.44 16596.71,20135.66 "/>
  <polygon class="fil1 str2" points="16121.34,20186.59 18990.51,19889.49 19092.38,20840.22 16223.21,21137.32 "/>
  <polyline class="fil0 str2" points="16121.34,20186.59 18990.51,19889.49 19092.38,20840.22 16223.21,21137.32 16121.34,20186.59 "/>
  <polygon class="fil1 str2" points="16223.21,21137.32 19092.38,20840.22 19194.24,21799.44 16316.58,22096.54 "/>
  <polyline class="fil0 str2" points="16223.21,21137.32 19092.38,20840.22 19194.24,21799.44 16316.58,22096.54 16223.21,21137.32 "/>
  <polygon class="fil1 str2" points="16316.58,22096.54 16223.21,21137.32 13345.55,21442.91 13447.42,22393.64 "/>
  <polyline class="fil0 str2" points="16316.58,22096.54 16223.21,21137.32 13345.55,21442.91 13447.42,22393.64 16316.58,22096.54 "/>
  <polygon class="fil1 str2" points="13252.18,20483.69 16121.34,20186.59 16223.21,21137.32 13345.55,21442.91 "/>
  <polyline class="fil0 str2" points="13252.18,20483.69 16121.34,20186.59 16223.21,21137.32 13345.55,21442.91 13252.18,20483.69 "/>
  <polygon class="fil1 str2" points="17275.8,22003.17 17581.39,24948.73 16613.69,24931.75 16316.58,22096.54 "/>
  <polyline class="fil0 str2" points="17275.8,22003.17 17581.39,24948.73 16613.69,24931.75 16316.58,22096.54 17275.8,22003.17 "/>
  <polygon class="fil1 str2" points="16316.58,22096.54 16613.69,24931.75 15645.98,24906.29 15365.85,22198.4 "/>
  <polyline class="fil0 str2" points="16316.58,22096.54 16613.69,24931.75 15645.98,24906.29 15365.85,22198.4 16316.58,22096.54 "/>
  <polygon class="fil1 str2" points="14406.63,22300.27 15365.85,22198.4 15645.98,24906.29 14686.76,25008.15 "/>
  <polyline class="fil0 str2" points="14406.63,22300.27 15365.85,22198.4 15645.98,24906.29 14686.76,25008.15 14406.63,22300.27 "/>
  <polygon class="fil1 str2" points="17275.8,22003.17 18235.02,21901.3 18557.59,24974.2 17581.39,24948.73 "/>
  <polyline class="fil0 str2" points="17275.8,22003.17 18235.02,21901.3 18557.59,24974.2 17581.39,24948.73 17275.8,22003.17 "/>
  <polygon class="fil2 str2" points="935.13,29575.05 13090.89,25177.93 10926.28,4287.33 12377.84,306.14 4559.79,110.9 "/>
  <polyline class="fil0 str2" points="935.13,29575.05 13090.89,25177.93 10926.28,4287.33 12377.84,306.14 4559.79,110.9 935.13,29575.05 "/>
  <polygon class="fil3 str2" points="21672.93,26918.1 21672.93,26111.68 19508.32,25797.6 15679.93,25712.71 13269.15,25958.88 26.84,30763.47 26.84,31612.33 13455.9,26748.33 15713.89,26519.13 19491.34,26595.53 "/>
  <polyline class="fil0 str2" points="21672.93,26918.1 21672.93,26111.68 19508.32,25797.6 15679.93,25712.71 13269.15,25958.88 26.84,30763.47 26.84,31612.33 13455.9,26748.33 15713.89,26519.13 19491.34,26595.53 21672.93,26918.1 "/>
 </g>
</svg>
